:SAMPLES-PER-SECOND 30
:FRAME-RANGE 1-668
:FULLY-SPECIFIED
:DEGREES
188
root  43.5416 39.7616 6.90208 -176.706 -14.6429 177.026
RightUpLeg  -13.1396 -3.56596 -6.71251
RightLeg  15.1185 -7.86447 -2.87533
RightFoot  -4.09112 -0.484484 7.19683
RightToes  -1.33073e-015 0 -3.6325e-017
Spine  5.34905 -0.353243 12.4569
Spine1  -1.34099 4.27828 -23.1995
HEad  3.44242 -26.4712 5.45987
LeftShoulder1  -0.70815 6.89865 -13.8164
LeftArm  -46.7807 24.8171 15.2109
LeftForeArm  40.9718 -76.5845 -112.087
LeftHand  -0.33653 22.9756 -1.31531
RightShoulder  -0.736063 11.2346 -15.4167
RightArm  39.629 -4.35252 6.12374
RightForeArm  -5.62065 52.8383 15.3633
RightHand  2.86846 3.35988 36.4806
LeftUpLeg  1.55085 11.9726 7.68811
LeftLeg  4.64617 17.4612 -2.63317
LeftFoot  -4.0892 0.696893 -10.5887
LeftToes  -2.73175e-012 1.00346e-010 -4.28452e-011
189
root  43.6811 39.724 6.89201 -177.141 -12.7385 177.333
RightUpLeg  -13.3754 -1.92386 -6.13959
RightLeg  15.4667 -7.5893 -2.83065
RightFoot  -4.14222 -0.466641 6.95984
RightToes  -1.33073e-015 0 -3.6325e-017
Spine  5.37502 -0.758929 11.6238
Spine1  -1.65003 3.9233 -24.0925
HEad  3.34126 -26.0425 8.2499
LeftShoulder1  -0.712041 6.56019 -16.4759
LeftArm  -46.7848 30.9268 13.3024
LeftForeArm  71.9671 -71.299 -139.125
LeftHand  0.317169 22.5605 2.85691
RightShoulder  -1.21112 12.08 -18.5915
RightArm  40.2731 -1.31564 6.39112
RightForeArm  -7.52193 48.2408 13.1098
RightHand  3.4374 4.45442 38.6224
LeftUpLeg  2.02777 12.1032 8.05702
LeftLeg  5.17727 19.0265 -2.00073
LeftFoot  -4.32545 0.707674 -11.096
LeftToes  -2.73175e-012 1.00346e-010 -4.28452e-011
190
root  43.8478 39.7094 6.8692 -177.598 -11.432 178.058
RightUpLeg  -13.1863 -1.18412 -5.03347
RightLeg  15.1545 -7.11218 -2.6485
RightFoot  -3.95426 -0.451092 6.56233
RightToes  -1.33073e-015 0 -3.6325e-017
Spine  5.24215 -0.932098 10.4202
Spine1  -1.8627 3.53672 -23.529
HEad  3.50905 -25.9721 11.3827
LeftShoulder1  -0.675099 6.17758 -18.5884
LeftArm  -48.0302 36.0056 9.18133
LeftForeArm  86.4681 -65.9016 -150.193
LeftHand  0.797904 21.8381 6.1963
RightShoulder  -1.5033 12.2647 -20.5997
RightArm  39.7994 1.41935 6.25917
RightForeArm  -8.09181 42.9504 10.9365
RightHand  3.86464 5.48373 39.2098
LeftUpLeg  2.33678 12.598 9.08158
LeftLeg  5.83471 19.6264 -1.54911
LeftFoot  -4.59966 0.712327 -11.5965
LeftToes  -2.73175e-012 1.00346e-010 -4.28452e-011
191
root  44.0092 39.7274 6.83103 -177.937 -10.6297 179.018
RightUpLeg  -12.6042 -1.53542 -3.65358
RightLeg  14.0244 -6.23615 -2.262
RightFoot  -3.54488 -0.449157 6.22985
RightToes  -1.33073e-015 0 -3.6325e-017
Spine  4.94615 -0.834541 9.0336
Spine1  -2.25503 3.18206 -21.8233
HEad  4.55596 -26.3041 13.8387
LeftShoulder1  -0.534065 5.55208 -19.484
LeftArm  -48.3336 40.0502 3.05519
LeftForeArm  97.2732 -62.2023 -155.148
LeftHand  1.14482 21.283 8.80933
RightShoulder  -1.60476 11.7877 -21.6957
RightArm  39.2957 4.25587 6.22893
RightForeArm  -9.01635 36.8283 8.91743
RightHand  4.14834 6.47035 38.5874
LeftUpLeg  2.53933 13.1454 10.3637
LeftLeg  6.18846 19.6909 -1.23274
LeftFoot  -4.63347 0.721799 -11.8116
LeftToes  -2.73175e-012 1.00346e-010 -4.28452e-011
192
root  44.1453 39.7672 6.79176 -178.142 -10.4476 179.882
RightUpLeg  -11.7838 -2.69561 -2.54858
RightLeg  12.4652 -5.04397 -1.59705
RightFoot  -3.1064 -0.459436 6.08137
RightToes  -1.33073e-015 0 -3.6325e-017
Spine  4.70569 -0.847548 7.17556
Spine1  -2.98526 2.47528 -18.9386
HEad  5.96867 -25.937 15.0326
LeftShoulder1  -0.404134 5.06438 -19.3024
LeftArm  -47.4134 43.0838 -3.13815
LeftForeArm  104.088 -59.8106 -157.717
LeftHand  1.54912 20.9053 11.8853
RightShoulder  -1.54833 11.1996 -21.7402
RightArm  37.2662 7.30622 5.48582
RightForeArm  -8.17016 31.0257 7.23467
RightHand  4.08648 6.87373 36.8599
LeftUpLeg  2.52316 13.4482 11.3563
LeftLeg  6.34469 19.4481 -0.842495
LeftFoot  -4.4416 0.721717 -11.5018
LeftToes  -2.73175e-012 1.00346e-010 -4.28452e-011
193
root  44.271 39.8158 6.73981 -178.294 -10.6407 -179.327
RightUpLeg  -10.8411 -3.49085 -1.71029
RightLeg  10.8018 -4.54903 -0.890274
RightFoot  -2.66117 -0.46876 5.93119
RightToes  -1.33073e-015 0 -3.6325e-017
Spine  4.72321 -0.981088 4.76797
Spine1  -4.25952 1.43546 -14.9048
HEad  7.09701 -25.3491 15.2304
LeftShoulder1  -0.30844 4.74833 -18.1122
LeftArm  -45.7626 45.8701 -8.65017
LeftForeArm  106.805 -58.9733 -158.549
LeftHand  1.75209 20.7549 13.4484
RightShoulder  -1.33801 10.1578 -20.9086
RightArm  34.5826 11.9002 4.29204
RightForeArm  -5.40057 25.2625 5.68913
RightHand  3.53824 6.55055 32.9928
LeftUpLeg  2.52315 13.6248 12.2493
LeftLeg  6.20777 19.0155 -0.543669
LeftFoot  -4.20529 0.732589 -11.3176
LeftToes  -2.73175e-012 1.00346e-010 -4.28452e-011
194
root  44.3912 39.8589 6.66775 -178.375 -11.2479 -178.586
RightUpLeg  -9.87021 -3.69974 -1.0363
RightLeg  9.14061 -5.25785 -0.299585
RightFoot  -2.39322 -0.494773 6.10803
RightToes  -1.33073e-015 0 -3.6325e-017
Spine  4.06539 -1.09022 1.55349
Spine1  -4.52417 0.326823 -9.20393
HEad  7.73995 -24.2419 13.8848
LeftShoulder1  -0.149613 4.14411 -16.5884
LeftArm  -43.2962 48.9672 -14.3371
LeftForeArm  109.729 -59.9251 -157.94
LeftHand  1.94025 20.575 14.9595
RightShoulder  -1.04636 8.67367 -19.547
RightArm  19.1877 17.4871 1.6774
RightForeArm  8.13111 18.1624 8.23823
RightHand  2.77929 5.78031 27.9105
LeftUpLeg  2.41534 13.7182 13.0791
LeftLeg  5.96028 18.2094 -0.322444
LeftFoot  -3.99731 0.744554 -11.2022
LeftToes  -2.73175e-012 1.00346e-010 -4.28452e-011
195
root  44.5008 39.8894 6.58935 -178.37 -12.7631 -177.863
RightUpLeg  -8.90668 -3.87792 -0.593993
RightLeg  7.54773 -6.87958 0.42507
RightFoot  -2.44065 -0.520447 6.46544
RightToes  -1.33073e-015 0 -3.6325e-017
Spine  3.15114 -1.33775 -2.55126
Spine1  -3.8333 -1.15354 -1.46192
HEad  7.31421 -22.8198 11.501
LeftShoulder1  -0.0565623 3.75127 -16.0392
LeftArm  -40.2412 50.4187 -18.7916
LeftForeArm  108.237 -62.5042 -155.495
LeftHand  1.98634 20.6489 15.2201
RightShoulder  -0.68592 5.94712 -18.0371
RightArm  -10.9542 22.9519 -2.46757
RightForeArm  31.0749 10.5285 10.9047
RightHand  2.06392 5.14387 22.1086
LeftUpLeg  1.72305 13.811 13.8219
LeftLeg  6.11673 16.5795 0.0161311
LeftFoot  -3.99667 0.74159 -11.1555
LeftToes  -2.73175e-012 1.00346e-010 -4.28452e-011
196
root  44.5768 39.8995 6.52396 -178.478 -15.0192 -177.179
RightUpLeg  -7.8952 -4.25395 -0.449695
RightLeg  6.25909 -8.66373 1.37133
RightFoot  -2.92547 -0.557429 7.29473
RightToes  -1.33073e-015 0 -3.6325e-017
Spine  2.98912 -1.56088 -5.76863
Spine1  -3.785 -2.46519 5.2757
HEad  6.41586 -22.3776 8.79753
LeftShoulder1  0.118676 2.96482 -15.1397
LeftArm  -36.7177 50.4528 -21.2724
LeftForeArm  102.511 -65.341 -151.92
LeftHand  2.02091 21.5299 14.6518
RightShoulder  -0.26034 2.57665 -14.6515
RightArm  -28.2063 26.2913 -7.05407
RightForeArm  34.963 9.46584 9.13566
RightHand  1.46937 5.57703 15.1102
LeftUpLeg  0.641803 13.7745 14.3982
LeftLeg  6.71025 14.306 0.496099
LeftFoot  -4.17762 0.714608 -10.9916
LeftToes  -2.73175e-012 1.00346e-010 -4.28452e-011
197
root  44.6181 39.8895 6.46873 -178.804 -17.4028 -176.505
RightUpLeg  -6.82427 -4.61125 -0.325678
RightLeg  5.23923 -10.6769 2.16919
RightFoot  -3.57057 -0.58749 8.27688
RightToes  -1.33073e-015 0 -3.6325e-017
Spine  2.94748 -1.62881 -8.40269
Spine1  -3.53683 -3.58755 11.6476
HEad  5.43688 -22.065 5.27787
LeftShoulder1  0.27286 2.19439 -13.8567
LeftArm  -32.1404 49.2183 -23.0202
LeftForeArm  92.8477 -69.3754 -144.933
LeftHand  2.04336 21.8571 14.5195
RightShoulder  -0.0267993 0.308344 -10.5649
RightArm  -40.7245 27.7962 -11.4406
RightForeArm  31.3675 11.2343 6.98584
RightHand  0.986696 6.05764 9.6267
LeftUpLeg  -0.391422 13.7975 14.988
LeftLeg  7.51138 11.8839 0.896904
LeftFoot  -4.50033 0.709714 -11.3952
LeftToes  -2.73175e-012 1.00346e-010 -4.28452e-011
198
root  44.6285 39.8632 6.40221 -179.364 -19.4117 -175.889
RightUpLeg  -5.79478 -5.04091 -0.190603
RightLeg  4.72703 -12.1434 2.78551
RightFoot  -4.22215 -0.587535 8.96365
RightToes  -1.33073e-015 0 -3.6325e-017
Spine  2.75613 -1.40422 -10.1949
Spine1  -3.24054 -4.3178 17.327
HEad  4.60033 -21.8983 1.41752
LeftShoulder1  0.371987 1.54655 -11.8452
LeftArm  -22.6327 46.6486 -21.5524
LeftForeArm  74.1189 -73.4742 -132.707
LeftHand  1.68029 23.8284 10.8551
RightShoulder  0.0437669 -1.30016 -7.50903
RightArm  -45.8808 28.4265 -14.1171
RightForeArm  26.8351 14.9364 5.54429
RightHand  0.346004 6.43211 3.04645
LeftUpLeg  -1.02928 14.2372 15.7464
LeftLeg  8.36771 9.3143 0.887447
LeftFoot  -4.93145 0.684419 -11.6652
LeftToes  -2.73175e-012 1.00346e-010 -4.28452e-011
199
root  44.5912 39.8457 6.3136 -179.978 -20.7444 -175.655
RightUpLeg  -4.74827 -5.51594 -0.332305
RightLeg  4.49864 -12.8595 3.12967
RightFoot  -4.82782 -0.574871 9.5025
RightToes  -1.33073e-015 0 -3.6325e-017
Spine  1.837 -1.02114 -10.3149
Spine1  -1.90483 -4.51012 19.9402
HEad  2.5613 -22.0702 -1.03241
LeftShoulder1  0.503656 0.621253 -10.1539
LeftArm  -9.74386 43.1041 -14.6639
LeftForeArm  54.1282 -75.3684 -122.308
LeftHand  1.61829 26.0145 9.41537
RightShoulder  0.0808995 -1.87533 -4.06703
RightArm  -47.9797 27.9649 -16.3483
RightForeArm  27.4911 18.3549 4.31777
RightHand  -0.537982 5.13788 -6.22833
LeftUpLeg  -1.01918 14.0542 15.9695
LeftLeg  8.80718 8.05789 1.04327
LeftFoot  -5.22658 0.66166 -11.7708
LeftToes  -2.73175e-012 1.00346e-010 -4.28452e-011
